HIERARCHY
ROOT root
{
	OFFSET	0	13.1	24.9
	CHANNELS 6  Xposition Yposition Zposition Xrotation Yrotation Zrotation
	JOINT spine_1
	{
		OFFSET	0	9.99999	0
		CHANNELS 3  Xrotation Yrotation Zrotation
		JOINT spine_2
		{
			OFFSET	0	112	-10
			CHANNELS 3  Xrotation Yrotation Zrotation
			JOINT spine_3
			{
				OFFSET	0	206.5	19.3
				CHANNELS 3  Xrotation Yrotation Zrotation
				JOINT spine_4
				{
					OFFSET	0	110.4	14.6
					CHANNELS 3  Xrotation Yrotation Zrotation
					JOINT neck_1
					{
						OFFSET	0	71.8	-50.3
						CHANNELS 3  Xrotation Yrotation Zrotation
						JOINT neck_2
						{
							OFFSET	0	86.2	-25.8
							CHANNELS 3  Xrotation Yrotation Zrotation
							JOINT head_ee
							{
								OFFSET	0	179.8	-8.7
								CHANNELS 3  Xrotation Yrotation Zrotation
								End Site
								{
									OFFSET	1	0	0
								}
							}
						}
					}
					JOINT left_clavicle
					{
						OFFSET	-43.2	22.4	-70.8
						CHANNELS 3  Xrotation Yrotation Zrotation
						JOINT left_shoulder
						{
							OFFSET	-93.9	-5.79999	48.7
							CHANNELS 3  Xrotation Yrotation Zrotation
							JOINT left_elbow
							{
								OFFSET	-291.4	-30.8	15.2
								CHANNELS 3  Xrotation Yrotation Zrotation
								JOINT left_lowarm_twist
								{
									OFFSET	-110.7	-3.89999	13.6
									CHANNELS 3  Xrotation Yrotation Zrotation
									JOINT left_hand
									{
										OFFSET	-110.7	-3.89999	13.6
										CHANNELS 3  Xrotation Yrotation Zrotation
										JOINT left_ee
										{
											OFFSET	-80.8	-5.10001	12.1
											CHANNELS 3  Xrotation Yrotation Zrotation
											End Site
											{
												OFFSET	1	0	0
											}
										}
									}
								}
							}
						}
					}
					JOINT right_clavicle
					{
						OFFSET	43.2	22.4	-70.8
						CHANNELS 3  Xrotation Yrotation Zrotation
						JOINT right_shoulder
						{
							OFFSET	93.9	-5.79999	48.7
							CHANNELS 3  Xrotation Yrotation Zrotation
							JOINT right_elbow
							{
								OFFSET	291.4	-30.8	15.2
								CHANNELS 3  Xrotation Yrotation Zrotation
								JOINT right_lowarm_twist
								{
									OFFSET	110.7	-3.89999	13.6
									CHANNELS 3  Xrotation Yrotation Zrotation
									JOINT right_hand
									{
										OFFSET	110.7	-3.89999	13.6
										CHANNELS 3  Xrotation Yrotation Zrotation
										JOINT right_ee
										{
											OFFSET	80.8	-5.10001	12.1
											CHANNELS 3  Xrotation Yrotation Zrotation
											End Site
											{
												OFFSET	1	0	0
											}
										}
									}
								}
							}
						}
					}
				}
			}
		}
	}
	JOINT left_hip
	{
		OFFSET	-82.8	-127.5	0.300001
		CHANNELS 3  Xrotation Yrotation Zrotation
		JOINT left_knee
		{
			OFFSET	-28.2	-396.7	2.2
			CHANNELS 3  Xrotation Yrotation Zrotation
			JOINT left_ankle
			{
				OFFSET	-11.7	-411.3	35.4
				CHANNELS 3  Xrotation Yrotation Zrotation
				JOINT left_toes
				{
					OFFSET	0	-60	-88.6
					CHANNELS 3  Xrotation Yrotation Zrotation
					JOINT left_foot_ee
					{
						OFFSET	-22.5	-16.5	-42.2
						CHANNELS 3  Xrotation Yrotation Zrotation
						End Site
						{
							OFFSET	1	0	0
						}
					}
				}
			}
		}
	}
	JOINT right_hip
	{
		OFFSET	82.8	-127.5	0.300001
		CHANNELS 3  Xrotation Yrotation Zrotation
		JOINT right_knee
		{
			OFFSET	28.2	-396.7	2.2
			CHANNELS 3  Xrotation Yrotation Zrotation
			JOINT right_ankle
			{
				OFFSET	11.7	-411.3	35.4
				CHANNELS 3  Xrotation Yrotation Zrotation
				JOINT right_toes
				{
					OFFSET	0	-60	-88.6
					CHANNELS 3  Xrotation Yrotation Zrotation
					JOINT right_foot_ee
					{
						OFFSET	22.5	-16.5	-42.2
						CHANNELS 3  Xrotation Yrotation Zrotation
						End Site
						{
							OFFSET	1	0	0
						}
					}
				}
			}
		}
	}
}
MOTION
Frames: 11
Frame Time: 0.02
1372.05 701.618 -1475.22 -21.1439678111 11.5323390293 11.320742876 7.86022 0.0615208 -0.870328 7.86063 0.116775 -0.86465 7.85823 0.180914 -0.853539 7.85721 0.0438485 -0.871397 -7.22745 7.92466 -2.78093 -7.19901 16.7318 -1.13938 -0.0 0.0 -0.0 2.46045 16.4015 5.78069 -0.195324 -28.8327 56.7675 1.88797 -43.0792 0.745257 47.3323 -0.784517 -5.82582 1.74919 -9.0063 8.00996 -0.0 0.0 -0.0 11.4718 10.8951 -23.085 -22.9277 -27.6427 -63.0473 0.204151 5.77486 -0.0102969 29.478 -0.0821947 3.72345 2.68068 9.9927 -13.9798 0.0 0.0 0.0 20.2774 44.662 -13.3568 -26.2293 0.169927 3.98653 36.293 -32.3245 -5.70633 -8.98902 0.0 0.0 -0.0 0.0 -0.0 70.1749 36.7831 -28.572 -15.8794 -0.321947 -2.4078 7.24518 -8.83259 1.03935 13.3468 -0.0 -0.0 0.0 0.0 0.0 
1355.86481316 703.092 -1494.79669438 -21.3796900154 11.068701832 11.2757523623 7.89206 0.0744287 -1.06517 7.89268 0.142054 -1.05828 7.88909 0.220006 -1.04486 7.88757 0.0522384 -1.06649 -6.57398 8.22532 -2.92091 -6.51973 17.3707 -1.31864 -0.0 0.0 -0.0 2.05746 17.3399 5.20362 -2.66728 -28.1864 58.2727 1.84366 -42.4011 0.715179 45.5313 -0.667781 -5.62706 1.72628 -7.83758 8.35691 -0.0 0.0 -0.0 11.6057 9.79465 -23.3885 -21.5509 -28.8123 -61.6553 0.20079 5.68042 -0.00996158 29.3511 -0.0859533 3.70768 2.4783 9.25891 -12.9035 0.0 0.0 0.0 20.1842 44.4137 -13.646 -28.0004 0.115448 4.25287 35.4647 -32.4078 -5.62074 -7.80941 0.0 0.0 -0.0 0.0 -0.0 68.6176 36.1896 -27.8777 -15.9689 -0.321858 -2.42154 9.1733 -8.19065 1.30759 13.4685 -0.0 -0.0 0.0 0.0 0.0 
1356.18120987 703.092 -1495.05402974 -21.3167716013 10.2118782113 10.9350048282 7.89206 0.0744287 -1.06517 7.89268 0.142054 -1.05828 7.88909 0.220006 -1.04486 7.88757 0.0522384 -1.06649 -6.57398 8.22532 -2.92091 -6.51973 17.3707 -1.31864 -0.0 0.0 -0.0 2.05746 17.3399 5.20362 -2.66728 -28.1864 58.2727 1.84366 -42.4011 0.715179 45.5313 -0.667781 -5.62706 1.72628 -7.83758 8.35691 -0.0 0.0 -0.0 11.6057 9.79465 -23.3885 -21.5509 -28.8123 -61.6553 0.20079 5.68042 -0.00996158 29.3511 -0.0859533 3.70768 2.4783 9.25891 -12.9035 0.0 0.0 0.0 20.1842 44.4137 -13.646 -28.0004 0.115448 4.25287 35.4647 -32.4078 -5.62074 -7.80941 0.0 0.0 -0.0 0.0 -0.0 68.6176 36.1896 -27.8777 -15.9689 -0.321858 -2.42154 9.1733 -8.19065 1.30759 13.4685 -0.0 -0.0 0.0 0.0 0.0 
1336.62933468 704.252 -1515.27455052 -21.3379277857 9.93518184169 10.880748221 7.97572 -0.000328543 -1.38952 7.97679 0.0880825 -1.38673 7.97293 0.188485 -1.37668 7.97029 -0.0312798 -1.38917 -6.02827 8.34589 -2.36922 -5.96726 17.1709 -0.821557 -0.0 0.0 -0.0 1.82105 19.1908 4.9565 -5.64355 -27.5441 60.2318 1.82201 -42.0644 0.70063 44.5202 -0.605013 -5.51393 1.7739 -7.44301 8.85089 -0.0 0.0 -0.0 11.4204 11.0734 -22.9682 -19.9707 -29.8203 -61.5083 0.208203 5.88869 -0.0107087 29.8081 -0.0722465 3.76444 2.36079 9.13735 -12.1452 0.0 0.0 0.0 20.1101 44.8049 -13.4485 -29.8675 0.04912 4.53173 34.4636 -32.0222 -5.47839 -7.64549 0.0 0.0 -0.0 0.0 -0.0 66.9975 36.3414 -27.0868 -16.7792 -0.32008 -2.54585 9.26925 -8.25137 1.32085 13.7239 -0.0 -0.0 0.0 0.0 0.0 
1310.56173855 712.887 -1540.2135122 -20.7291148347 9.53248290931 10.417496247 8.02217 0.0730103 -1.67181 8.0237 0.179229 -1.66378 8.01603 0.298312 -1.64661 8.01225 0.0345551 -1.67305 -5.70769 8.28624 -2.93689 -5.62221 17.4645 -1.45808 -0.0 0.0 -0.0 2.5661 22.8093 6.21105 -8.55686 -25.567 61.7128 1.57119 -37.8917 0.539373 42.5299 -0.48735 -5.2881 1.71792 -6.88894 8.70506 -0.0 0.0 -0.0 11.8429 11.0038 -23.92 -15.7134 -29.1242 -59.6043 0.266177 7.51166 -0.0174734 30.5246 -0.0498421 3.85322 2.28622 9.27812 -11.5692 0.0 0.0 0.0 21.6228 41.6962 -12.1431 -35.0813 -0.183852 5.29756 36.8802 -32.1102 -5.7538 -6.98676 0.0 0.0 -0.0 0.0 -0.0 63.8695 36.2169 -26.1183 -18.1704 -0.312928 -2.75918 11.4086 -8.53386 1.61371 13.9974 -0.0 -0.0 0.0 0.0 0.0 
1311.81641466 712.887 -1541.37797852 -20.6676088986 8.50701518555 10.0251933991 8.02217 0.0730103 -1.67181 8.0237 0.179229 -1.66378 8.01603 0.298312 -1.64661 8.01225 0.0345551 -1.67305 -5.70769 8.28624 -2.93689 -5.62221 17.4645 -1.45808 -0.0 0.0 -0.0 2.5661 22.8093 6.21105 -8.55686 -25.567 61.7128 1.57119 -37.8917 0.539373 42.5299 -0.48735 -5.2881 1.71792 -6.88894 8.70506 -0.0 0.0 -0.0 11.8429 11.0038 -23.92 -15.7134 -29.1242 -59.6043 0.266177 7.51166 -0.0174734 30.5246 -0.0498421 3.85322 2.28622 9.27812 -11.5692 0.0 0.0 0.0 21.6228 41.6962 -12.1431 -35.0813 -0.183852 5.29756 36.8802 -32.1102 -5.7538 -6.98676 0.0 0.0 -0.0 0.0 -0.0 63.8695 36.2169 -26.1183 -18.1704 -0.312928 -2.75918 11.4086 -8.53386 1.61371 13.9974 -0.0 -0.0 0.0 0.0 0.0 
1291.8795826 718.073 -1560.26394322 -20.1721648049 8.41513833892 9.92685902827 7.91382 -0.0398201 -1.91281 7.91585 0.0819553 -1.91147 7.90984 0.222582 -1.90024 7.90481 -0.080262 -1.91154 -6.00285 7.81603 -2.09619 -5.95119 15.9898 -0.648947 -0.0 0.0 -0.0 2.20367 22.7939 5.70459 -12.1646 -25.0084 63.5648 1.4622 -35.9147 0.473916 41.6153 -0.435937 -5.183 1.77395 -7.0773 9.00743 -0.0 0.0 -0.0 11.8889 13.6993 -23.983 -14.2783 -27.6698 -59.8768 0.309696 8.72218 -0.0236184 30.872 -0.0385817 3.89616 2.21542 9.11772 -11.1524 0.0 0.0 0.0 23.4645 43.0614 -13.0151 -37.2896 -0.303399 5.61509 35.5477 -31.9104 -5.59287 -7.04457 0.0 0.0 -0.0 0.0 -0.0 60.9958 36.6376 -25.0897 -18.7666 -0.308276 -2.85054 9.54296 -9.06369 1.35884 13.6546 -0.0 -0.0 0.0 0.0 0.0 
1268.38201857 722.229 -1584.03910957 -17.4677365732 7.86496102506 7.33637181489 7.06676 0.0475749 -1.56428 7.06811 0.147005 -1.55809 7.06227 0.28422 -1.53898 7.05896 0.0376301 -1.56455 -6.46686 8.04976 -2.50507 -6.41928 16.7399 -0.950258 -0.0 0.0 -0.0 2.57855 23.2084 6.24223 -15.6196 -22.9075 64.0088 1.21416 -31.0239 0.337001 40.9515 -0.399676 -5.10622 1.61308 -5.899 8.40925 -0.0 0.0 -0.0 11.9648 14.5481 -24.132 -12.5941 -25.4411 -60.4846 0.364732 10.2418 -0.0326856 30.9111 -0.0372962 3.901 2.26034 9.20645 -11.4226 0.0 0.0 0.0 27.4137 40.1439 -13.9 -44.6044 -0.785372 6.63048 36.3432 -30.9597 -5.61117 -7.52345 0.0 0.0 -0.0 0.0 -0.0 54.8796 37.7704 -22.6499 -20.3087 -0.291841 -3.08657 10.837 -9.25299 1.53634 13.9197 -0.0 -0.0 0.0 0.0 0.0 
1272.61887004 722.229 -1587.92359079 -17.3892334728 5.77412690206 6.67536953013 7.06676 0.0475749 -1.56428 7.06811 0.147005 -1.55809 7.06227 0.28422 -1.53898 7.05896 0.0376301 -1.56455 -6.46686 8.04976 -2.50507 -6.41928 16.7399 -0.950258 -0.0 0.0 -0.0 2.57855 23.2084 6.24223 -15.6196 -22.9075 64.0088 1.21416 -31.0239 0.337001 40.9515 -0.399676 -5.10622 1.61308 -5.899 8.40925 -0.0 0.0 -0.0 11.9648 14.5481 -24.132 -12.5941 -25.4411 -60.4846 0.364732 10.2418 -0.0326856 30.9111 -0.0372962 3.901 2.26034 9.20645 -11.4226 0.0 0.0 0.0 27.4137 40.1439 -13.9 -44.6044 -0.785372 6.63048 36.3432 -30.9597 -5.61117 -7.52345 0.0 0.0 -0.0 0.0 -0.0 54.8796 37.7704 -22.6499 -20.3087 -0.291841 -3.08657 10.837 -9.25299 1.53634 13.9197 -0.0 -0.0 0.0 0.0 0.0 
1264.22327522 722.585 -1603.76980716 -17.1880468688 5.14734703259 5.54616776922 6.82547 -0.00604005 -1.35061 6.82648 0.0799069 -1.34825 6.82327 0.204368 -1.33507 6.82078 -0.0090265 -1.35059 -6.71873 8.38706 -3.08081 -6.66512 17.7909 -1.42466 -0.0 0.0 -0.0 2.56884 23.1451 6.2266 -16.6599 -22.8548 65.5225 0.992195 -26.1738 0.230657 39.8414 -0.341038 -4.97692 1.44791 -4.93937 7.68799 -0.0 0.0 -0.0 12.1541 15.1606 -24.5449 -9.81582 -26.6997 -60.1957 0.367708 10.3236 -0.0332169 31.6625 -0.0119864 3.99362 2.19292 9.24096 -10.9438 0.0 0.0 0.0 29.4638 35.7714 -13.4739 -50.4763 -1.2639 7.39681 35.1993 -29.2108 -5.36816 -7.67362 0.0 0.0 -0.0 0.0 -0.0 51.3229 38.1991 -20.1276 -19.5059 -0.301189 -2.96376 11.2109 -9.74075 1.58765 13.0478 -0.0 -0.0 0.0 0.0 0.0 
1239.64856561 725.512 -1633.85676591 -15.1648851688 5.73180734008 4.22377832038 6.21614 0.164632 -0.966043 6.21663 0.225768 -0.953611 6.21233 0.322962 -0.925227 6.21118 0.172794 -0.964616 -7.27375 8.67962 -3.83367 -7.22212 18.8887 -2.02881 -0.0 0.0 -0.0 2.38549 21.7199 5.91372 -20.4118 -23.0473 67.1608 0.699361 -19.1083 0.117714 39.7246 -0.335017 -4.96325 1.28341 -3.58704 7.13469 -0.0 0.0 -0.0 12.4678 19.8593 -25.0211 -4.92765 -26.5392 -61.9885 0.31102 8.75889 -0.0238195 33.1758 0.0426748 4.17915 2.09958 9.98853 -9.97547 0.0 0.0 0.0 32.7232 25.4239 -11.7496 -59.721 -2.16993 8.49464 32.2543 -26.4944 -4.87744 -7.88894 0.0 0.0 -0.0 0.0 -0.0 43.1935 35.9876 -16.7408 -18.5468 -0.310101 -2.81687 10.7433 -9.66714 1.52387 10.4008 -0.0 -0.0 0.0 0.0 0.0 
